PathFileType	4	(X/Y/Z)	C:\Users\Gabre\Documents\2-Sophmore\Autumn\ME 191\Nick_10292018\Nick_10292018\Upper Extremity\static_upper.trc																																																																			
DataRate	CameraRate	NumFrames	NumMarkers	Units	OrigDataRate	OrigDataStartFrame	OrigNumFrames																																																															
100	100	9	23	mm	100	95	253																																																															
Frame#	Time	Back_IMU_O			Back_IMU_D			Back_IMU_X			Back_IMU_Y			c7			aa			L.Acromion			ij			EpL			EpM			R.Radius			R.Ulna			R.Hand			Humerus_IMU_O			Humerus_IMU_D			Humerus_IMU_X			Humerus_IMU_Y			Forearm_IMU_O			Forearm_IMU_D			Forearm_IMU_X			Forearm_IMU_Y			Hand_IMU_O			Scapula_IMU_O		
		X1	Y1	Z1	X2	Y2	Z2	X3	Y3	Z3	X4	Y4	Z4	X5	Y5	Z5	X6	Y6	Z6	X7	Y7	Z7	X8	Y8	Z8	X9	Y9	Z9	X10	Y10	Z10	X11	Y11	Z11	X12	Y12	Z12	X13	Y13	Z13	X14	Y14	Z14	X15	Y15	Z15	X16	Y16	Z16	X17	Y17	Z17	X18	Y18	Z18	X19	Y19	Z19	X20	Y20	Z20	X21	Y21	Z21	X22	Y22	Z22	X23	Y23	Z23
																																																																						
95	0.94	-585.93396	502.67624	1010.87164	-611.80981	572.25757	899.71393	-596.28369	587.48914	1000.48804	-601.61359	488.91122	909.9444	-581.07111	548.32971	1024.5813	-457.38608	406.92313	1008.21515	-508.43076	731.33429	977.08533	-409.08151	572.44354	984.08569	-154.76657	316.50095	955.91125	-155.25986	349.14923	887.2005	108.22159	401.2941	1012.7605	98.90485	340.44916	1027.90674	219.78606	395.97864	1022.91254	-339.58743	367.3916	1027.54797	-299.26685	295.05072	929.48889	-364.61224	297.34705	945.724	-275.85718	362.16049	1010.60266	30.88353	408.57236	1015.92236	77.19047	310.47333	1025.74854	30.82917	309.61575	1019.39758	77.3838	408.43762	1022.84857	173.65462	378.04703	1041.93347	-485.479	369.07468	1010.7973
96	0.95	-585.93738	502.66541	1010.85059	-611.87421	572.30524	899.73627	-596.35443	587.56525	1000.48035	-601.66937	488.94183	909.98615	-581.10706	548.36017	1024.60864	-457.39667	406.95786	1008.18268	-508.44931	731.38849	977.18243	-409.08685	572.45282	984.14105	-154.69916	315.93976	956.23743	-155.18489	349.08942	887.31525	108.23378	401.25806	1012.84497	98.87613	340.3996	1028.03162	219.93712	395.89786	1022.9884	-339.55853	367.4621	1027.52698	-299.3241	295.12766	929.53363	-364.55997	297.44424	945.67792	-276.08157	363.16888	1010.23187	30.82707	408.67841	1015.96027	77.11294	310.41125	1025.87866	30.76019	309.54773	1019.49268	77.35968	408.39307	1022.95544	173.65289	378.00696	1041.97925	-485.5386	369.17654	1010.80371
97	0.96	-585.99976	502.76862	1010.92517	-611.93024	572.35242	899.77826	-596.39429	587.55109	1000.56055	-601.77832	488.9104	910.03412	-581.16071	548.36932	1024.69214	-457.34549	407.06564	1008.22827	-508.48224	731.4563	977.16168	-409.0325	572.63544	984.31653	-155.11674	317.94479	955.23804	-155.20236	349.00632	887.41772	108.17919	401.22241	1012.94543	98.79371	340.37375	1028.09473	219.78815	395.80396	1023.08838	-339.58743	367.3916	1027.54797	-299.45264	295.155	929.62115	-364.63937	297.45001	945.74274	-276.24661	363.2919	1010.18402	30.7867	408.5509	1016.078	77.0677	310.38306	1025.92395	30.77835	309.44397	1019.5744	77.35291	408.26736	1022.94763	173.67271	377.94873	1042.08032	-485.47324	369.19003	1010.83875
98	0.97	-586.09772	502.69736	1011.0437	-611.85553	572.34399	899.84448	-596.46069	587.599	1000.62006	-601.93323	488.92868	910.20868	-581.25452	548.42462	1024.85022	-457.32861	407.03873	1008.25366	-508.44403	731.37952	977.17584	-409.13901	572.56055	984.25549	-155.20018	317.93253	955.23346	-155.11336	348.86398	887.53864	108.14134	401.12967	1013.00311	98.76733	340.30716	1028.17908	219.81468	395.63116	1023.21545	-339.58743	367.3916	1027.54797	-299.45264	295.155	929.62115	-364.62906	297.36386	945.73438	-276.36377	363.3075	1010.15924	30.75171	408.51251	1016.13977	77.07311	310.35028	1026.04224	30.70688	309.46704	1019.67755	77.15785	408.2283	1023.18311	173.65598	377.86578	1042.16077	-485.54895	369.21573	1010.91071
99	0.98	-586.03961	502.70102	1011.06757	-611.87286	572.33093	899.90546	-596.6311	587.76263	1000.77228	-601.94012	488.91443	910.13666	-581.35626	548.41534	1024.9679	-457.3562	407.0433	1008.24261	-508.45587	731.38	977.17346	-409.11508	572.61871	984.4043	-155.16019	317.89441	955.31372	-155.11922	348.78729	887.65894	108.11648	401.06714	1013.08014	98.747	340.21945	1028.30078	219.77277	395.6123	1023.26337	-339.57712	367.50525	1027.54089	-299.50067	295.16953	929.64783	-364.7514	297.34445	945.77356	-276.29938	363.25739	1010.36499	30.73916	408.50998	1016.22974	77.07311	310.35028	1026.04224	30.66482	309.47507	1019.83356	77.08865	408.19846	1023.24298	173.62068	377.79944	1042.25464	-485.56796	369.31235	1010.94287
100	0.99	-586.11993	502.82693	1011.15729	-611.87286	572.33093	899.90546	-596.62823	587.61072	1000.81519	-602.03143	488.90558	910.25513	-581.35724	548.38605	1025.00342	-457.43433	407.06461	1008.25043	-508.4986	731.3988	977.20032	-409.0542	572.70776	984.47095	-155.19504	317.79434	955.34821	-155.12563	348.69705	887.77362	108.09939	400.99744	1013.20807	98.74093	340.18048	1028.31592	219.72884	395.53384	1023.30188	-339.70535	367.39963	1027.61011	-299.60718	295.18185	929.66956	-364.75586	297.3877	945.76007	-276.33044	363.26993	1010.3833	30.89555	408.21088	1016.42596	77.02884	310.19937	1026.24622	30.64823	309.35236	1019.90076	77.09633	408.10211	1023.32361	173.60933	377.70401	1042.35632	-485.55627	369.18701	1010.9964
101	1	-586.13629	502.82736	1011.17566	-612.23969	572.29144	900.16766	-596.69202	587.68365	1000.91901	-602.02405	488.90958	910.28918	-581.36597	548.38452	1025.0072	-457.32861	407.03873	1008.25366	-508.56912	731.37598	977.21295	-409.02768	572.68817	984.54376	-155.18874	317.76743	955.38995	-155.15445	348.74445	887.80804	108.00878	400.95416	1013.23676	98.79478	340.07089	1028.38013	219.70247	395.46057	1023.35876	-339.77267	367.40353	1027.66528	-299.53986	295.1821	929.66626	-364.8121	297.36884	945.82239	-276.35394	363.27493	1010.3609	30.89832	408.2056	1016.43555	77.06113	310.03616	1026.33398	30.60268	309.30017	1019.88263	77.16251	408.02948	1023.45239	173.5555	377.68369	1042.41565	-485.63837	369.14557	1011.03955
102	1.01	-586.23889	502.8241	1011.22668	-612.22443	572.29468	900.12158	-596.67047	587.65002	1000.88336	-601.95166	488.90707	910.26727	-581.36407	548.38507	1025.01453	-457.62061	407.08319	1008.29028	-508.60471	731.33435	977.20648	-408.9805	572.60919	984.44476	-155.22354	317.70801	955.39008	-155.17268	348.84949	887.86053	107.98759	400.95554	1013.26746	98.86442	340.00769	1028.46655	219.64703	395.37778	1023.39429	-339.75967	367.53986	1027.65967	-299.63379	295.22577	929.65527	-364.79926	297.47989	945.80701	-276.30551	363.19058	1010.40826	30.74525	408.35104	1016.43445	77.07376	309.86331	1026.39172	30.5568	309.29776	1019.91193	77.10768	408.08688	1023.40631	173.60178	377.58194	1042.43494	-485.67676	369.1463	1011.07678
103	1.02	-586.18579	502.86102	1011.255	-612.22443	572.29468	900.12158	-596.69952	587.68719	1000.91327	-601.95117	488.89682	910.22931	-581.37189	548.41309	1024.99292	-457.62061	407.08319	1008.29028	-508.56409	731.42926	977.1828	-409.01382	572.60052	984.47827	-155.34976	317.70956	955.39795	-155.19678	348.88644	887.82922	107.88609	400.89343	1013.30249	98.85326	339.93246	1028.51575	219.63795	395.32425	1023.39874	-339.83554	367.43381	1027.71777	-299.70056	295.19125	929.68683	-364.72745	297.42368	945.75171	-276.30618	363.17953	1010.39728	30.75557	408.32138	1016.44312	76.97723	309.82175	1026.35352	30.56201	309.21945	1019.92725	77.14099	408.02148	1023.44659	173.50612	377.52258	1042.42712	-485.71628	369.2222	1011.07288
